<?xml version="1.0" encoding="utf-8"?>
<!-- Generator: Adobe Illustrator 23.0.1, SVG Export Plug-In . SVG Version: 6.00 Build 0)  -->
<svg class = "services-icon" xmlns="http://www.w3.org/2000/svg" xmlns:xlink="http://www.w3.org/1999/xlink" >
<symbol id='hand'>
<path style="stroke:none;" d="M39 20C41.6119 13.8085 39.7622 -2.30716 29.2276 4.02855C23.448 7.50457 23.0222 18.0159 16.8264 22.3966C12.9701 25.1232 5.79053 22.1388 3.60339 27.1481C1.71696 31.4688 1.12125 50.1718 5.3179 52.9722C9.16033 55.5363 16.4554 53.9826 21 55.3449C27.9233 57.4203 39.566 60.9414 45.8526 55.5664C50.9534 51.2052 56.1292 29.7918 52.2539 24.1088C49.1787 19.5992 43.8139 20.0032 39 20z"/>
<path style="fill:#ffffff; stroke:none;" d="M15 28L15 50C22.7267 51.1411 35.1438 57.809 42.6829 52.821C46.7693 50.1173 51.9429 29.3362 48.3812 25.6034C45.4806 22.5635 37.8286 24 34 24C34.5674 21.6047 35.4156 19.3572 36.0988 16.9985C36.919 14.1663 35.8935 3.63993 30.8503 8.62269C24.6186 14.7797 24.237 23.6896 15 28M8 45L8 50L10 50L10 45L8 45z"/>
</symbol>
<symbol id = "flag" viewBox = "0 0 56.966 56.966">
   <path style="stroke:none;" d="M5 54L8 54C8 41.4215 7.19719 28.5474 8.05401 16C8.2578 13.0158 12.2097 3.57114 6.07562 3.75154C0.205141 3.92419 4.73615 13.1252 4.94522 16C5.85651 28.5309 5 41.4338 5 54M11 41C17.4128 39.8958 23.327 35.8153 30 36.1435C38.5649 36.5648 45.0292 42.4122 53.9954 38.713C62.2502 35.3072 60.0033 25.3254 60 18C59.9988 15.4325 60.7723 10.6183 58.3966 8.81636C55.1786 6.37548 48.8241 11.7232 45 11.436C39.8765 11.0512 35.268 7.91779 30 7.51775C7.35578 5.79818 11 24.922 11 41z"/>
</symbol>
<symbol id = "colb" viewBox = "0 0 56.966 56.966">
   <path style="stroke:none;" d="M17 6L21 6C21 17.3583 18.2054 23.4808 12 33C9.34631 37.0708 2.51346 44.584 3.42593 49.7716C4.13051 53.7774 10.074 52.9951 13 53L40 53C42.905 52.9987 48.1924 53.8153 49.8673 50.6821C51.9778 46.7338 46.3038 40.1063 44.3079 37C37.322 26.1279 33 19.0632 33 6L37 6C34.9371 -0.215366 19.0629 -0.215374 17 6z"/>
<path style="fill:#ffffff; stroke:none;" d="M15 37L39 36C32.8797 24.9651 29 18.8442 29 6C21.3865 7.27059 25.1189 15.4224 23.3009 21C21.4229 26.762 16.8506 31.1923 15 37z"/>
</symbol>
<symbol id = "key" viewBox = "0 0 56.966 56.966">
<path style="stroke:none;" d="M47 43L47 42L51 39C54.8926 45.4043 57.8988 38.0682 52.9552 33.0201C47.9419 27.9006 41.0344 31.0744 47 35C42.593 39.3255 37.1018 33.2982 34.5309 29C30.2738 21.8828 40.7167 12.8348 31.7755 5.70293C16.4038 -6.55818 -9.46348 23.5475 7.18904 34.7716C15.0325 40.0582 23.1763 31.2632 30 37.1019C35.7411 42.0142 42.3732 53.3056 49.9807 55.1096C59.4639 57.3582 49.4578 44.7471 47 43z"/>
<path style="fill:#ffffff; stroke:none;" d="M17 18C-4.38135 19.1739 22.5646 41.6863 21 22C40.7676 21.3567 18.0973 -1.98544 17 18z"/>
</symbol>
</svg>
