<?xml version="1.0" encoding="utf-8"?>
<!-- Generator: Adobe Illustrator 23.0.1, SVG Export Plug-In . SVG Version: 6.00 Build 0)  -->
<svg class = "file-icon" xmlns="http://www.w3.org/2000/svg" xmlns:xlink="http://www.w3.org/1999/xlink">
<symbol id='file' viewBox="0 0 595.28 595.28" >
    <g>
        <path stroke = "none" fill = "#ff4e00" class="st0" d="M502,246v225H94V246H502 M524.86,204H71.14C60.57,204,52,212.57,52,223.14v270.71
            C52,504.43,60.57,513,71.14,513h453.71c10.57,0,19.14-8.57,19.14-19.14V223.14C544,212.57,535.43,204,524.86,204L524.86,204z"/>
    </g>
    <g>
        <line class="st1" x1="195.05" y1="284" x2="195.05" y2="390"/>
    </g>
    <g>
        <line class="st1" x1="400.38" y1="283" x2="400.38" y2="390"/>
    </g>
    <g>
        <line class="st1" x1="188" y1="369" x2="409" y2="369"/>
    </g>
    <g>
        <line class="st1" x1="135" y1="104" x2="461" y2="104"/>
    </g>
   <g>
         <line class="st1" x1="75" y1="223" x2="152" y2="94"/>
    </g>
   <g>
         <line class="st1" x1="525" y1="229" x2="444" y2="95"/>
    </g>
</symbol>
    <symbol id = "search" viewBox = "0 0 56.966 56.966">
    <path d="M55.146,51.887L41.588,37.786c3.486-4.144,5.396-9.358,5.396-14.786c0-12.682-10.318-23-23-23s-23,10.318-23,23
	s10.318,23,23,23c4.761,0,9.298-1.436,13.177-4.162l13.661,14.208c0.571,0.593,1.339,0.92,2.162,0.92
	c0.779,0,1.518-0.297,2.079-0.837C56.255,54.982,56.293,53.08,55.146,51.887z M23.984,6c9.374,0,17,7.626,17,17s-7.626,17-17,17
	s-17-7.626-17-17S14.61,6,23.984,6z"/>
</symbol>
</svg>
